<svg width="65" height="65" viewBox="0 0 65 65" fill="none" xmlns="http://www.w3.org/2000/svg">
<path d="M58.7158 40.7913H56.8115V42.6956H58.7158V40.7913Z" fill="#EEEEEE"/>
<path d="M19.2757 8.68829L0 5.58924V29.8238L19.2757 25.967V8.68829ZM17.3714 24.406L1.9043 27.5008V7.82412L17.3714 10.3109V24.406Z" fill="#EEEEEE"/>
<path d="M4.14688 19.7428L4.35864 21.6353L15.8915 20.3448L15.6797 18.4523L4.14688 19.7428Z" fill="#EEEEEE"/>
<path d="M9.26535 10.9491L7.38562 10.6443L7.08074 12.524L8.96047 12.8289L9.26535 10.9491Z" fill="#EEEEEE"/>
<path d="M6.13217 10.4411L4.25244 10.1362L3.94756 12.0159L5.82729 12.3208L6.13217 10.4411Z" fill="#EEEEEE"/>
<path d="M15.9377 12.0313L10.5178 11.1522L10.2129 13.032L15.6328 13.911L15.9377 12.0313Z" fill="#EEEEEE"/>
<path d="M45.7244 8.68829V25.9669L65 29.824V5.58924L45.7244 8.68829ZM63.0957 27.5008L47.6287 24.4061V10.3109L63.0957 7.82412V27.5008Z" fill="#EEEEEE"/>
<path d="M15.8575 15.2339L4.17285 14.3468L4.0287 16.2456L15.7134 17.1327L15.8575 15.2339Z" fill="#EEEEEE"/>
<path d="M40.6669 15.2317H34.2773V17.136H40.6669V15.2317Z" fill="#EEEEEE"/>
<path d="M40.6669 12.1239H34.2773V14.0282H40.6669V12.1239Z" fill="#EEEEEE"/>
<path d="M39.3555 18.3408H37.4512V20.2451H39.3555V18.3408Z" fill="#EEEEEE"/>
<path d="M36.1816 18.3408H34.2773V20.2451H36.1816V18.3408Z" fill="#EEEEEE"/>
<path d="M51.7753 19.59H49.871V21.4448H51.7753V19.59Z" fill="#EEEEEE"/>
<path d="M51.7753 16.4162H49.871V18.3205H51.7753V16.4162Z" fill="#EEEEEE"/>
<path d="M51.7753 13.2424H49.871V15.1467H51.7753V13.2424Z" fill="#EEEEEE"/>
<path d="M24.1055 16.1845C24.1055 18.4813 25.9741 20.3501 28.2709 20.3501C30.5678 20.3501 32.4365 18.4815 32.4365 16.1845C32.4365 13.8875 30.5679 12.019 28.2709 12.019C25.974 12.0189 24.1055 13.8875 24.1055 16.1845ZM30.5322 16.1845C30.5322 17.4313 29.5179 18.4458 28.2709 18.4458C27.024 18.4458 26.0098 17.4314 26.0098 16.1845C26.0098 14.9376 27.0241 13.9233 28.2709 13.9233C29.5177 13.9232 30.5322 14.9377 30.5322 16.1845Z" fill="#EEEEEE"/>
<path d="M56.3138 11.8141H54.4095V23.556H56.3138V11.8141Z" fill="#EEEEEE"/>
<path d="M61.001 17.4204H59.0967V24.2974H61.001V17.4204Z" fill="#EEEEEE"/>
<path d="M61.001 14.2466H59.0967V16.1508H61.001V14.2466Z" fill="#EEEEEE"/>
<path d="M61.001 11.0727H59.0967V12.977H61.001V11.0727Z" fill="#EEEEEE"/>
<path d="M27.8287 23.9197H22.5764V10.7663H42.4235V23.9197H38.9296V25.824H44.3278V8.86196H20.6721V25.824H27.8287V23.9197Z" fill="#EEEEEE"/>
<path d="M48.8223 33.5694L45.1421 29.8891L41.4861 33.5451H37.6563C38.5803 32.5223 39.1439 31.1681 39.1439 29.6846C39.1439 26.5058 36.5579 23.9197 33.3791 23.9197C30.2003 23.9197 27.6143 26.5058 27.6143 29.6846C27.6143 31.1681 28.178 32.5223 29.1019 33.5451H26.9299L24.8486 35.6263V48.0123H28.1768V59.4106H38.5815V39.0364H43.6701L48.8223 33.5694ZM33.3791 25.824C35.5079 25.824 37.2396 27.5558 37.2396 29.6846C37.2396 31.8133 35.5077 33.5451 33.3791 33.5451C31.2505 33.5451 29.5186 31.8132 29.5186 29.6846C29.5186 27.5561 31.2504 25.824 33.3791 25.824ZM34.2142 35.4494L33.3791 37.5191L32.544 35.4494H34.2142ZM36.6771 37.1321V57.5063H34.3311V48.068H32.4268V57.5063H30.081V39.9975H28.1767V46.108H26.7528V36.4151L27.7185 35.4494H30.4904L32.5901 40.6533H34.1679L36.2676 35.4494H42.2749L45.1421 32.5821L46.1686 33.6087L42.848 37.1321H36.6771Z" fill="#EEEEEE"/>
<path d="M52.7274 45.9531H50.8231V47.8574H52.7274V45.9531Z" fill="#EEEEEE"/>
<path d="M61.7627 45.9531H57.1708V47.8574H61.7627V45.9531Z" fill="#EEEEEE"/>
<path d="M55.9012 45.9531H53.9969V47.8574H55.9012V45.9531Z" fill="#EEEEEE"/>
<path d="M62.7148 38.1459H52.8125V43.4356H41.5771V59.4105H65V43.4357H62.7148V38.1459ZM54.7168 40.0502H60.8105V43.4356H54.7168V40.0502ZM59.7949 57.5063H46.7822V56.078H54.9707V54.1737H46.7822V50.4182H59.7949V57.5063ZM63.0957 45.34V57.5063H61.6992V48.5139H44.8779V57.5063H43.4814V45.34H63.0957Z" fill="#EEEEEE"/>
<path d="M15.7253 51.9463H22.1773V29.4128H4.91169V51.9463H11.3637V57.5065H0.952148V59.4108H26.59V57.5065H15.7253V51.9463ZM6.81599 50.042V31.317H20.273V50.042H6.81599ZM13.821 57.5062H13.268V51.946H13.821V57.5062Z" fill="#EEEEEE"/>
<path d="M18.2846 35.3958H15.1531V37.3001H18.2846V35.3958Z" fill="#EEEEEE"/>
<path d="M13.8835 35.3958H11.9792V37.3001H13.8835V35.3958Z" fill="#EEEEEE"/>
<path d="M10.7097 35.3958H8.80542V37.3001H10.7097V35.3958Z" fill="#EEEEEE"/>
<path d="M18.285 39.0457H8.80542V40.95H18.285V39.0457Z" fill="#EEEEEE"/>
<path d="M18.285 42.6956H8.80542V44.5999H18.285V42.6956Z" fill="#EEEEEE"/>
</svg>
